<mxfile host="app.diagrams.net" modified="2024-06-12T20:16:19.113Z" agent="Mozilla/5.0 (Windows NT 10.0; Win64; x64) AppleWebKit/537.36 (KHTML, like Gecko) Chrome/125.0.0.0 Safari/537.36" etag="CnEWJbIL9KyNM1kfE9IR" version="24.5.4" type="github">
  <diagram id="prtHgNgQTEPvFCAcTncT" name="Page-1">
    <mxGraphModel dx="794" dy="412" grid="1" gridSize="10" guides="1" tooltips="1" connect="1" arrows="1" fold="1" page="1" pageScale="1" pageWidth="827" pageHeight="1169" math="0" shadow="0">
      <root>
        <mxCell id="0" />
        <mxCell id="1" parent="0" />
        <mxCell id="dNxyNK7c78bLwvsdeMH5-19" value="Road Trip Buddy" style="swimlane;html=1;childLayout=stackLayout;resizeParent=1;resizeParentMax=0;horizontal=0;startSize=20;horizontalStack=0;" parent="1" vertex="1">
          <mxGeometry x="120" y="40" width="970" height="1610" as="geometry" />
        </mxCell>
        <mxCell id="dNxyNK7c78bLwvsdeMH5-20" value="Client" style="swimlane;html=1;startSize=20;horizontal=0;" parent="dNxyNK7c78bLwvsdeMH5-19" vertex="1">
          <mxGeometry x="20" width="950" height="320" as="geometry" />
        </mxCell>
        <mxCell id="dNxyNK7c78bLwvsdeMH5-25" value="" style="edgeStyle=orthogonalEdgeStyle;rounded=0;orthogonalLoop=1;jettySize=auto;html=1;" parent="dNxyNK7c78bLwvsdeMH5-20" source="dNxyNK7c78bLwvsdeMH5-23" target="dNxyNK7c78bLwvsdeMH5-24" edge="1">
          <mxGeometry relative="1" as="geometry" />
        </mxCell>
        <mxCell id="dNxyNK7c78bLwvsdeMH5-23" value="User accesses page" style="ellipse;whiteSpace=wrap;html=1;" parent="dNxyNK7c78bLwvsdeMH5-20" vertex="1">
          <mxGeometry x="30" y="125" width="60" height="70" as="geometry" />
        </mxCell>
        <mxCell id="dNxyNK7c78bLwvsdeMH5-24" value="User enters a packaged food item in UI" style="rounded=0;whiteSpace=wrap;html=1;fontFamily=Helvetica;fontSize=12;fontColor=#000000;align=center;" parent="dNxyNK7c78bLwvsdeMH5-20" vertex="1">
          <mxGeometry x="120" y="130" width="80" height="60" as="geometry" />
        </mxCell>
        <mxCell id="6-BciqSMr9cg0atfWl0l-12" value="Redirect user to new item entry UI" style="whiteSpace=wrap;html=1;rounded=0;" vertex="1" parent="dNxyNK7c78bLwvsdeMH5-20">
          <mxGeometry x="274" y="220" width="120" height="60" as="geometry" />
        </mxCell>
        <mxCell id="6-BciqSMr9cg0atfWl0l-22" value="" style="edgeStyle=orthogonalEdgeStyle;rounded=0;orthogonalLoop=1;jettySize=auto;html=1;" edge="1" parent="dNxyNK7c78bLwvsdeMH5-20" source="6-BciqSMr9cg0atfWl0l-19" target="6-BciqSMr9cg0atfWl0l-21">
          <mxGeometry relative="1" as="geometry" />
        </mxCell>
        <mxCell id="6-BciqSMr9cg0atfWl0l-19" value="Return each Ingredient result back to client browser" style="rounded=0;whiteSpace=wrap;html=1;" vertex="1" parent="dNxyNK7c78bLwvsdeMH5-20">
          <mxGeometry x="412.5" y="140" width="175" height="90" as="geometry" />
        </mxCell>
        <mxCell id="6-BciqSMr9cg0atfWl0l-21" value="Display ingredients Result report" style="rounded=0;whiteSpace=wrap;html=1;" vertex="1" parent="dNxyNK7c78bLwvsdeMH5-20">
          <mxGeometry x="412.5" y="10" width="175" height="90" as="geometry" />
        </mxCell>
        <mxCell id="dNxyNK7c78bLwvsdeMH5-21" value="MicroService" style="swimlane;html=1;startSize=20;horizontal=0;" parent="dNxyNK7c78bLwvsdeMH5-19" vertex="1">
          <mxGeometry x="20" y="320" width="950" height="750" as="geometry" />
        </mxCell>
        <mxCell id="6-BciqSMr9cg0atfWl0l-5" value="" style="edgeStyle=orthogonalEdgeStyle;rounded=0;orthogonalLoop=1;jettySize=auto;html=1;" edge="1" parent="dNxyNK7c78bLwvsdeMH5-21" source="6-BciqSMr9cg0atfWl0l-1" target="6-BciqSMr9cg0atfWl0l-3">
          <mxGeometry relative="1" as="geometry" />
        </mxCell>
        <mxCell id="6-BciqSMr9cg0atfWl0l-7" value="" style="edgeStyle=orthogonalEdgeStyle;rounded=0;orthogonalLoop=1;jettySize=auto;html=1;entryX=0.5;entryY=1;entryDx=0;entryDy=0;" edge="1" parent="dNxyNK7c78bLwvsdeMH5-21" source="6-BciqSMr9cg0atfWl0l-1" target="6-BciqSMr9cg0atfWl0l-10">
          <mxGeometry relative="1" as="geometry">
            <mxPoint x="330" y="210" as="targetPoint" />
          </mxGeometry>
        </mxCell>
        <mxCell id="6-BciqSMr9cg0atfWl0l-8" value="No" style="edgeLabel;html=1;align=center;verticalAlign=middle;resizable=0;points=[];" vertex="1" connectable="0" parent="6-BciqSMr9cg0atfWl0l-7">
          <mxGeometry x="-0.3101" y="-1" relative="1" as="geometry">
            <mxPoint as="offset" />
          </mxGeometry>
        </mxCell>
        <mxCell id="6-BciqSMr9cg0atfWl0l-1" value="Is a result found?" style="rhombus;whiteSpace=wrap;html=1;" vertex="1" parent="dNxyNK7c78bLwvsdeMH5-21">
          <mxGeometry x="135" y="230" width="80" height="80" as="geometry" />
        </mxCell>
        <mxCell id="6-BciqSMr9cg0atfWl0l-3" value="&lt;br&gt;GET: getFoodItem&lt;br&gt;&lt;br&gt;Run query to FoodItem table:&lt;br&gt;&lt;br&gt;Select * from dbo.FoodItems where name = &quot;{{userInput}}&quot;" style="whiteSpace=wrap;html=1;aspect=fixed;" vertex="1" parent="dNxyNK7c78bLwvsdeMH5-21">
          <mxGeometry x="105" y="20" width="140" height="140" as="geometry" />
        </mxCell>
        <mxCell id="6-BciqSMr9cg0atfWl0l-10" value="return empty results array to client browser" style="rounded=0;whiteSpace=wrap;html=1;" vertex="1" parent="dNxyNK7c78bLwvsdeMH5-21">
          <mxGeometry x="274" y="100" width="120" height="60" as="geometry" />
        </mxCell>
        <mxCell id="dNxyNK7c78bLwvsdeMH5-22" value="Heroku DB" style="swimlane;html=1;startSize=20;horizontal=0;" parent="dNxyNK7c78bLwvsdeMH5-19" vertex="1">
          <mxGeometry x="20" y="1070" width="950" height="540" as="geometry" />
        </mxCell>
        <mxCell id="6-BciqSMr9cg0atfWl0l-9" value="Use result FoodItem.ID to query FoodItemDetails&lt;br&gt;&lt;br&gt;For each returned FoodItemDetails record, query Ingredients table" style="rounded=0;whiteSpace=wrap;html=1;" vertex="1" parent="dNxyNK7c78bLwvsdeMH5-22">
          <mxGeometry x="87.5" y="20" width="175" height="90" as="geometry" />
        </mxCell>
        <mxCell id="6-BciqSMr9cg0atfWl0l-4" style="edgeStyle=orthogonalEdgeStyle;rounded=0;orthogonalLoop=1;jettySize=auto;html=1;entryX=0.383;entryY=-0.05;entryDx=0;entryDy=0;entryPerimeter=0;" edge="1" parent="dNxyNK7c78bLwvsdeMH5-19" source="dNxyNK7c78bLwvsdeMH5-24" target="6-BciqSMr9cg0atfWl0l-3">
          <mxGeometry relative="1" as="geometry" />
        </mxCell>
        <mxCell id="6-BciqSMr9cg0atfWl0l-13" value="" style="edgeStyle=orthogonalEdgeStyle;rounded=0;orthogonalLoop=1;jettySize=auto;html=1;" edge="1" parent="dNxyNK7c78bLwvsdeMH5-19" source="6-BciqSMr9cg0atfWl0l-10" target="6-BciqSMr9cg0atfWl0l-12">
          <mxGeometry relative="1" as="geometry" />
        </mxCell>
        <mxCell id="6-BciqSMr9cg0atfWl0l-14" value="" style="edgeStyle=orthogonalEdgeStyle;rounded=0;orthogonalLoop=1;jettySize=auto;html=1;" edge="1" parent="dNxyNK7c78bLwvsdeMH5-19" source="6-BciqSMr9cg0atfWl0l-1" target="6-BciqSMr9cg0atfWl0l-9">
          <mxGeometry relative="1" as="geometry" />
        </mxCell>
        <mxCell id="6-BciqSMr9cg0atfWl0l-15" value="Yes" style="edgeLabel;html=1;align=center;verticalAlign=middle;resizable=0;points=[];" vertex="1" connectable="0" parent="6-BciqSMr9cg0atfWl0l-14">
          <mxGeometry x="-0.2467" y="-3" relative="1" as="geometry">
            <mxPoint as="offset" />
          </mxGeometry>
        </mxCell>
        <mxCell id="6-BciqSMr9cg0atfWl0l-20" value="" style="edgeStyle=orthogonalEdgeStyle;rounded=0;orthogonalLoop=1;jettySize=auto;html=1;" edge="1" parent="dNxyNK7c78bLwvsdeMH5-19" source="6-BciqSMr9cg0atfWl0l-9" target="6-BciqSMr9cg0atfWl0l-19">
          <mxGeometry relative="1" as="geometry" />
        </mxCell>
      </root>
    </mxGraphModel>
  </diagram>
</mxfile>
